<svg width="20" height="20" viewBox="0 0 20 20" fill="none" xmlns="http://www.w3.org/2000/svg">
<rect width="1" height="1" transform="matrix(1 0 0 -1 7 1)" fill="#503F51"/>
<rect x="7" y="19" width="1" height="1" fill="#503F51"/>
<rect x="13" y="1" width="1" height="1" transform="rotate(180 13 1)" fill="#503F51"/>
<rect width="1" height="1" transform="matrix(-1 0 0 1 13 19)" fill="#503F51"/>
<rect width="1" height="1" transform="matrix(1 0 0 -1 8 1)" fill="#503F51"/>
<rect x="8" y="19" width="1" height="1" fill="#503F51"/>
<rect x="12" y="1" width="1" height="1" transform="rotate(180 12 1)" fill="#503F51"/>
<rect width="1" height="1" transform="matrix(-1 0 0 1 12 19)" fill="#503F51"/>
<rect width="1" height="1" transform="matrix(1 0 0 -1 9 1)" fill="#503F51"/>
<rect x="9" y="19" width="1" height="1" fill="#503F51"/>
<rect x="11" y="1" width="1" height="1" transform="rotate(180 11 1)" fill="#503F51"/>
<rect width="1" height="1" transform="matrix(-1 0 0 1 11 19)" fill="#503F51"/>
<rect width="1" height="1" transform="matrix(1 0 0 -1 0 9)" fill="#503F51"/>
<rect y="11" width="1" height="1" fill="#503F51"/>
<rect x="20" y="9" width="1" height="1" transform="rotate(180 20 9)" fill="#503F51"/>
<rect width="1" height="1" transform="matrix(-1 0 0 1 20 11)" fill="#503F51"/>
<rect width="1" height="1" transform="matrix(1 0 0 -1 0 10)" fill="#503F51"/>
<rect y="10" width="1" height="1" fill="#503F51"/>
<rect x="20" y="10" width="1" height="1" transform="rotate(180 20 10)" fill="#503F51"/>
<rect width="1" height="1" transform="matrix(-1 0 0 1 20 10)" fill="#503F51"/>
<rect x="5" y="18" width="1" height="1" fill="#503F51"/>
<rect width="1" height="1" transform="matrix(-1 0 0 1 15 18)" fill="#503F51"/>
<rect x="4" y="17" width="1" height="1" fill="#503F51"/>
<rect x="8" y="9" width="1" height="1" fill="#503F51"/>
<rect x="8" y="14" width="1" height="1" fill="#503F51"/>
<rect x="7" y="13" width="1" height="1" transform="rotate(-90 7 13)" fill="#503F51"/>
<rect x="7" y="14" width="1" height="1" transform="rotate(-90 7 14)" fill="#503F51"/>
<rect x="12" y="13" width="1" height="1" transform="rotate(-90 12 13)" fill="#503F51"/>
<rect x="12" y="14" width="1" height="1" transform="rotate(-90 12 14)" fill="#503F51"/>
<rect x="9" y="9" width="1" height="1" fill="#503F51"/>
<rect x="9" y="14" width="1" height="1" fill="#503F51"/>
<rect x="7" y="12" width="1" height="1" transform="rotate(-90 7 12)" fill="#503F51"/>
<rect x="12" y="12" width="1" height="1" transform="rotate(-90 12 12)" fill="#503F51"/>
<rect x="13" y="12" width="1" height="1" transform="rotate(-90 13 12)" fill="#503F51"/>
<rect width="1" height="1" transform="matrix(4.37114e-08 -1 -1 -4.37114e-08 7 12)" fill="#503F51"/>
<rect x="14" y="12" width="1" height="1" transform="rotate(-90 14 12)" fill="#503F51"/>
<rect width="1" height="1" transform="matrix(4.37114e-08 -1 -1 -4.37114e-08 6 12)" fill="#503F51"/>
<rect x="16" y="11" width="1" height="1" transform="rotate(-90 16 11)" fill="#503F51"/>
<rect width="1" height="1" transform="matrix(4.37114e-08 -1 -1 -4.37114e-08 4 11)" fill="#503F51"/>
<rect x="15" y="12" width="1" height="1" transform="rotate(-90 15 12)" fill="#503F51"/>
<rect width="1" height="1" transform="matrix(4.37114e-08 -1 -1 -4.37114e-08 5 12)" fill="#503F51"/>
<rect x="17" y="11" width="1" height="1" transform="rotate(-90 17 11)" fill="#503F51"/>
<rect width="1" height="1" transform="matrix(4.37114e-08 -1 -1 -4.37114e-08 3 11)" fill="#503F51"/>
<rect x="18" y="10" width="1" height="1" transform="rotate(-90 18 10)" fill="#503F51"/>
<rect width="1" height="1" transform="matrix(4.37114e-08 -1 -1 -4.37114e-08 2 10)" fill="#503F51"/>
<rect width="1" height="1" transform="matrix(4.37114e-08 -1 -1 -4.37114e-08 2 9)" fill="#7B70DE"/>
<rect width="1" height="1" transform="matrix(4.37114e-08 -1 -1 -4.37114e-08 2 11)" fill="#E9E8EF"/>
<rect width="1" height="1" transform="matrix(4.37114e-08 -1 -1 -4.37114e-08 2 12)" fill="#E9E8EF"/>
<rect width="1" height="1" transform="matrix(4.37114e-08 -1 -1 -4.37114e-08 2 13)" fill="#E9E8EF"/>
<rect width="1" height="1" transform="matrix(4.37114e-08 -1 -1 -4.37114e-08 3 12)" fill="#E9E8EF"/>
<rect width="1" height="1" transform="matrix(4.37114e-08 -1 -1 -4.37114e-08 3 13)" fill="#E9E8EF"/>
<rect width="1" height="1" transform="matrix(4.37114e-08 -1 -1 -4.37114e-08 3 14)" fill="#E9E8EF"/>
<rect width="1" height="1" transform="matrix(4.37114e-08 -1 -1 -4.37114e-08 3 15)" fill="#E9E8EF"/>
<rect width="1" height="1" transform="matrix(4.37114e-08 -1 -1 -4.37114e-08 4 12)" fill="#E9E8EF"/>
<rect width="1" height="1" transform="matrix(4.37114e-08 -1 -1 -4.37114e-08 4 13)" fill="#E9E8EF"/>
<rect width="1" height="1" transform="matrix(4.37114e-08 -1 -1 -4.37114e-08 4 14)" fill="#E9E8EF"/>
<rect width="1" height="1" transform="matrix(4.37114e-08 -1 -1 -4.37114e-08 4 15)" fill="#E9E8EF"/>
<rect width="1" height="1" transform="matrix(4.37114e-08 -1 -1 -4.37114e-08 4 16)" fill="#E9E8EF"/>
<rect width="1" height="1" transform="matrix(4.37114e-08 -1 -1 -4.37114e-08 4 17)" fill="#E9E8EF"/>
<rect width="1" height="1" transform="matrix(4.37114e-08 -1 -1 -4.37114e-08 5 13)" fill="#E9E8EF"/>
<rect width="1" height="1" transform="matrix(4.37114e-08 -1 -1 -4.37114e-08 5 14)" fill="#E9E8EF"/>
<rect width="1" height="1" transform="matrix(4.37114e-08 -1 -1 -4.37114e-08 5 15)" fill="#E9E8EF"/>
<rect width="1" height="1" transform="matrix(4.37114e-08 -1 -1 -4.37114e-08 5 16)" fill="#E9E8EF"/>
<rect width="1" height="1" transform="matrix(4.37114e-08 -1 -1 -4.37114e-08 5 17)" fill="#E9E8EF"/>
<rect width="1" height="1" transform="matrix(4.37114e-08 -1 -1 -4.37114e-08 6 13)" fill="#E9E8EF"/>
<rect width="1" height="1" transform="matrix(4.37114e-08 -1 -1 -4.37114e-08 6 14)" fill="#E9E8EF"/>
<rect width="1" height="1" transform="matrix(4.37114e-08 -1 -1 -4.37114e-08 6 15)" fill="#E9E8EF"/>
<rect width="1" height="1" transform="matrix(4.37114e-08 -1 -1 -4.37114e-08 6 16)" fill="#E9E8EF"/>
<rect width="1" height="1" transform="matrix(4.37114e-08 -1 -1 -4.37114e-08 6 17)" fill="#E9E8EF"/>
<rect width="1" height="1" transform="matrix(4.37114e-08 -1 -1 -4.37114e-08 6 18)" fill="#E9E8EF"/>
<rect width="1" height="1" transform="matrix(4.37114e-08 -1 -1 -4.37114e-08 7 13)" fill="#E9E8EF"/>
<rect width="1" height="1" transform="matrix(4.37114e-08 -1 -1 -4.37114e-08 7 14)" fill="#E9E8EF"/>
<rect width="1" height="1" transform="matrix(4.37114e-08 -1 -1 -4.37114e-08 7 15)" fill="#E9E8EF"/>
<rect width="1" height="1" transform="matrix(4.37114e-08 -1 -1 -4.37114e-08 7 16)" fill="#E9E8EF"/>
<rect width="1" height="1" transform="matrix(4.37114e-08 -1 -1 -4.37114e-08 7 17)" fill="#E9E8EF"/>
<rect width="1" height="1" transform="matrix(4.37114e-08 -1 -1 -4.37114e-08 7 18)" fill="#E9E8EF"/>
<rect width="1" height="1" transform="matrix(4.37114e-08 -1 -1 -4.37114e-08 8 15)" fill="#E9E8EF"/>
<rect width="1" height="1" transform="matrix(4.37114e-08 -1 -1 -4.37114e-08 8 16)" fill="#E9E8EF"/>
<rect width="1" height="1" transform="matrix(4.37114e-08 -1 -1 -4.37114e-08 8 17)" fill="#E9E8EF"/>
<rect width="1" height="1" transform="matrix(4.37114e-08 -1 -1 -4.37114e-08 8 18)" fill="#E9E8EF"/>
<rect width="1" height="1" transform="matrix(4.37114e-08 -1 -1 -4.37114e-08 8 19)" fill="#E9E8EF"/>
<rect width="1" height="1" transform="matrix(4.37114e-08 -1 -1 -4.37114e-08 9 16)" fill="#E9E8EF"/>
<rect width="1" height="1" transform="matrix(4.37114e-08 -1 -1 -4.37114e-08 10 16)" fill="#E9E8EF"/>
<rect width="1" height="1" transform="matrix(4.37114e-08 -1 -1 -4.37114e-08 11 16)" fill="#E9E8EF"/>
<rect width="1" height="1" transform="matrix(4.37114e-08 -1 -1 -4.37114e-08 12 16)" fill="#E9E8EF"/>
<rect width="1" height="1" transform="matrix(4.37114e-08 -1 -1 -4.37114e-08 13 16)" fill="#E9E8EF"/>
<rect width="1" height="1" transform="matrix(4.37114e-08 -1 -1 -4.37114e-08 15 15)" fill="#E9E8EF"/>
<rect width="1" height="1" transform="matrix(4.37114e-08 -1 -1 -4.37114e-08 17 14)" fill="#E9E8EF"/>
<rect width="1" height="1" transform="matrix(4.37114e-08 -1 -1 -4.37114e-08 16 14)" fill="#E9E8EF"/>
<rect width="1" height="1" transform="matrix(4.37114e-08 -1 -1 -4.37114e-08 14 15)" fill="#E9E8EF"/>
<rect width="1" height="1" transform="matrix(4.37114e-08 -1 -1 -4.37114e-08 13 15)" fill="#E9E8EF"/>
<rect width="1" height="1" transform="matrix(4.37114e-08 -1 -1 -4.37114e-08 14 14)" fill="#E9E8EF"/>
<rect width="1" height="1" transform="matrix(4.37114e-08 -1 -1 -4.37114e-08 15 13)" fill="#E9E8EF"/>
<rect width="1" height="1" transform="matrix(4.37114e-08 -1 -1 -4.37114e-08 14 13)" fill="#E9E8EF"/>
<rect width="1" height="1" transform="matrix(4.37114e-08 -1 -1 -4.37114e-08 15 14)" fill="#E9E8EF"/>
<rect width="1" height="1" transform="matrix(4.37114e-08 -1 -1 -4.37114e-08 17 13)" fill="#E9E8EF"/>
<rect width="1" height="1" transform="matrix(4.37114e-08 -1 -1 -4.37114e-08 16 13)" fill="#E9E8EF"/>
<rect width="1" height="1" transform="matrix(4.37114e-08 -1 -1 -4.37114e-08 17 12)" fill="#E9E8EF"/>
<rect width="1" height="1" transform="matrix(4.37114e-08 -1 -1 -4.37114e-08 19 11)" fill="#E9E8EF"/>
<rect width="1" height="1" transform="matrix(4.37114e-08 -1 -1 -4.37114e-08 19 12)" fill="#E9E8EF"/>
<rect width="1" height="1" transform="matrix(4.37114e-08 -1 -1 -4.37114e-08 19 13)" fill="#E9E8EF"/>
<rect width="1" height="1" transform="matrix(4.37114e-08 -1 -1 -4.37114e-08 18 14)" fill="#E9E8EF"/>
<rect width="1" height="1" transform="matrix(4.37114e-08 -1 -1 -4.37114e-08 18 15)" fill="#E9E8EF"/>
<rect width="1" height="1" transform="matrix(4.37114e-08 -1 -1 -4.37114e-08 18 13)" fill="#E9E8EF"/>
<rect width="1" height="1" transform="matrix(4.37114e-08 -1 -1 -4.37114e-08 18 12)" fill="#E9E8EF"/>
<rect width="1" height="1" transform="matrix(4.37114e-08 -1 -1 -4.37114e-08 9 17)" fill="#E9E8EF"/>
<rect width="1" height="1" transform="matrix(4.37114e-08 -1 -1 -4.37114e-08 10 17)" fill="#E9E8EF"/>
<rect width="1" height="1" transform="matrix(4.37114e-08 -1 -1 -4.37114e-08 11 17)" fill="#E9E8EF"/>
<rect width="1" height="1" transform="matrix(4.37114e-08 -1 -1 -4.37114e-08 9 11)" fill="#E9E8EF"/>
<rect width="1" height="1" transform="matrix(4.37114e-08 -1 -1 -4.37114e-08 9 12)" fill="#E9E8EF"/>
<rect width="1" height="1" transform="matrix(4.37114e-08 -1 -1 -4.37114e-08 9 13)" fill="#E9E8EF"/>
<rect width="1" height="1" transform="matrix(4.37114e-08 -1 -1 -4.37114e-08 9 14)" fill="#E9E8EF"/>
<rect width="1" height="1" transform="matrix(4.37114e-08 -1 -1 -4.37114e-08 10 11)" fill="#E9E8EF"/>
<rect width="1" height="1" transform="matrix(4.37114e-08 -1 -1 -4.37114e-08 10 12)" fill="#E9E8EF"/>
<rect width="1" height="1" transform="matrix(4.37114e-08 -1 -1 -4.37114e-08 10 13)" fill="#E9E8EF"/>
<rect width="1" height="1" transform="matrix(4.37114e-08 -1 -1 -4.37114e-08 10 14)" fill="#E9E8EF"/>
<rect width="1" height="1" transform="matrix(4.37114e-08 -1 -1 -4.37114e-08 11 11)" fill="#E9E8EF"/>
<rect width="1" height="1" transform="matrix(4.37114e-08 -1 -1 -4.37114e-08 11 12)" fill="#E9E8EF"/>
<rect width="1" height="1" transform="matrix(4.37114e-08 -1 -1 -4.37114e-08 11 13)" fill="#E9E8EF"/>
<rect width="1" height="1" transform="matrix(4.37114e-08 -1 -1 -4.37114e-08 11 14)" fill="#E9E8EF"/>
<rect width="1" height="1" transform="matrix(4.37114e-08 -1 -1 -4.37114e-08 12 11)" fill="#E9E8EF"/>
<rect width="1" height="1" transform="matrix(4.37114e-08 -1 -1 -4.37114e-08 12 12)" fill="#E9E8EF"/>
<rect width="1" height="1" transform="matrix(4.37114e-08 -1 -1 -4.37114e-08 12 13)" fill="#E9E8EF"/>
<rect width="1" height="1" transform="matrix(4.37114e-08 -1 -1 -4.37114e-08 12 14)" fill="#E9E8EF"/>
<rect width="1" height="1" transform="matrix(4.37114e-08 -1 -1 -4.37114e-08 12 17)" fill="#E9E8EF"/>
<rect width="1" height="1" transform="matrix(4.37114e-08 -1 -1 -4.37114e-08 13 17)" fill="#E9E8EF"/>
<rect width="1" height="1" transform="matrix(4.37114e-08 -1 -1 -4.37114e-08 15 16)" fill="#E9E8EF"/>
<rect width="1" height="1" transform="matrix(4.37114e-08 -1 -1 -4.37114e-08 17 15)" fill="#E9E8EF"/>
<rect width="1" height="1" transform="matrix(4.37114e-08 -1 -1 -4.37114e-08 16 15)" fill="#E9E8EF"/>
<rect width="1" height="1" transform="matrix(4.37114e-08 -1 -1 -4.37114e-08 14 16)" fill="#E9E8EF"/>
<rect width="1" height="1" transform="matrix(4.37114e-08 -1 -1 -4.37114e-08 13 16)" fill="#E9E8EF"/>
<rect width="1" height="1" transform="matrix(4.37114e-08 -1 -1 -4.37114e-08 9 18)" fill="#E9E8EF"/>
<rect width="1" height="1" transform="matrix(4.37114e-08 -1 -1 -4.37114e-08 10 18)" fill="#E9E8EF"/>
<rect width="1" height="1" transform="matrix(4.37114e-08 -1 -1 -4.37114e-08 11 18)" fill="#E9E8EF"/>
<rect width="1" height="1" transform="matrix(4.37114e-08 -1 -1 -4.37114e-08 12 18)" fill="#E9E8EF"/>
<rect width="1" height="1" transform="matrix(4.37114e-08 -1 -1 -4.37114e-08 13 18)" fill="#E9E8EF"/>
<rect width="1" height="1" transform="matrix(4.37114e-08 -1 -1 -4.37114e-08 15 17)" fill="#E9E8EF"/>
<rect width="1" height="1" transform="matrix(4.37114e-08 -1 -1 -4.37114e-08 17 16)" fill="#E9E8EF"/>
<rect width="1" height="1" transform="matrix(4.37114e-08 -1 -1 -4.37114e-08 16 16)" fill="#E9E8EF"/>
<rect width="1" height="1" transform="matrix(4.37114e-08 -1 -1 -4.37114e-08 14 17)" fill="#E9E8EF"/>
<rect width="1" height="1" transform="matrix(4.37114e-08 -1 -1 -4.37114e-08 13 17)" fill="#E9E8EF"/>
<rect width="1" height="1" transform="matrix(4.37114e-08 -1 -1 -4.37114e-08 9 19)" fill="#E9E8EF"/>
<rect width="1" height="1" transform="matrix(4.37114e-08 -1 -1 -4.37114e-08 10 19)" fill="#E9E8EF"/>
<rect width="1" height="1" transform="matrix(4.37114e-08 -1 -1 -4.37114e-08 11 19)" fill="#E9E8EF"/>
<rect width="1" height="1" transform="matrix(4.37114e-08 -1 -1 -4.37114e-08 12 19)" fill="#E9E8EF"/>
<rect width="1" height="1" transform="matrix(4.37114e-08 -1 -1 -4.37114e-08 13 19)" fill="#E9E8EF"/>
<rect width="1" height="1" transform="matrix(4.37114e-08 -1 -1 -4.37114e-08 15 18)" fill="#E9E8EF"/>
<rect width="1" height="1" transform="matrix(4.37114e-08 -1 -1 -4.37114e-08 17 17)" fill="#E9E8EF"/>
<rect width="1" height="1" transform="matrix(4.37114e-08 -1 -1 -4.37114e-08 16 17)" fill="#E9E8EF"/>
<rect width="1" height="1" transform="matrix(4.37114e-08 -1 -1 -4.37114e-08 14 18)" fill="#E9E8EF"/>
<rect width="1" height="1" transform="matrix(4.37114e-08 -1 -1 -4.37114e-08 13 18)" fill="#E9E8EF"/>
<rect width="1" height="1" transform="matrix(4.37114e-08 -1 -1 -4.37114e-08 3 9)" fill="#7B70DE"/>
<rect width="1" height="1" transform="matrix(4.37114e-08 -1 -1 -4.37114e-08 4 9)" fill="#7B70DE"/>
<rect width="1" height="1" transform="matrix(4.37114e-08 -1 -1 -4.37114e-08 5 9)" fill="#7B70DE"/>
<rect width="1" height="1" transform="matrix(4.37114e-08 -1 -1 -4.37114e-08 6 9)" fill="#7B70DE"/>
<rect width="1" height="1" transform="matrix(4.37114e-08 -1 -1 -4.37114e-08 7 9)" fill="#7B70DE"/>
<rect width="1" height="1" transform="matrix(4.37114e-08 -1 -1 -4.37114e-08 8 9)" fill="#7B70DE"/>
<rect width="1" height="1" transform="matrix(4.37114e-08 -1 -1 -4.37114e-08 9 9)" fill="#7B70DE"/>
<rect width="1" height="1" transform="matrix(4.37114e-08 -1 -1 -4.37114e-08 10 9)" fill="#7B70DE"/>
<rect width="1" height="1" transform="matrix(4.37114e-08 -1 -1 -4.37114e-08 11 9)" fill="#7B70DE"/>
<rect width="1" height="1" transform="matrix(4.37114e-08 -1 -1 -4.37114e-08 12 9)" fill="#7B70DE"/>
<rect width="1" height="1" transform="matrix(4.37114e-08 -1 -1 -4.37114e-08 13 9)" fill="#7B70DE"/>
<rect width="1" height="1" transform="matrix(4.37114e-08 -1 -1 -4.37114e-08 14 9)" fill="#7B70DE"/>
<rect width="1" height="1" transform="matrix(4.37114e-08 -1 -1 -4.37114e-08 15 9)" fill="#7B70DE"/>
<rect width="1" height="1" transform="matrix(4.37114e-08 -1 -1 -4.37114e-08 16 9)" fill="#7B70DE"/>
<rect width="1" height="1" transform="matrix(4.37114e-08 -1 -1 -4.37114e-08 17 9)" fill="#7B70DE"/>
<rect width="1" height="1" transform="matrix(4.37114e-08 -1 -1 -4.37114e-08 18 9)" fill="#7B70DE"/>
<rect width="1" height="1" transform="matrix(4.37114e-08 -1 -1 -4.37114e-08 19 9)" fill="#7B70DE"/>
<rect width="1" height="1" transform="matrix(4.37114e-08 -1 -1 -4.37114e-08 2 8)" fill="#B62A87"/>
<rect width="1" height="1" transform="matrix(4.37114e-08 -1 -1 -4.37114e-08 3 8)" fill="#B62A87"/>
<rect width="1" height="1" transform="matrix(4.37114e-08 -1 -1 -4.37114e-08 8 7)" fill="#7B70DE"/>
<rect width="1" height="1" transform="matrix(4.37114e-08 -1 -1 -4.37114e-08 9 7)" fill="#7B70DE"/>
<rect width="1" height="1" transform="matrix(4.37114e-08 -1 -1 -4.37114e-08 10 7)" fill="#E9E8EF"/>
<rect width="1" height="1" transform="matrix(4.37114e-08 -1 -1 -4.37114e-08 11 7)" fill="#E9E8EF"/>
<rect width="1" height="1" transform="matrix(4.37114e-08 -1 -1 -4.37114e-08 12 7)" fill="#7B70DE"/>
<rect width="1" height="1" transform="matrix(4.37114e-08 -1 -1 -4.37114e-08 13 7)" fill="#7B70DE"/>
<rect width="1" height="1" transform="matrix(4.37114e-08 -1 -1 -4.37114e-08 14 7)" fill="#7B70DE"/>
<rect width="1" height="1" transform="matrix(4.37114e-08 -1 -1 -4.37114e-08 15 7)" fill="#7B70DE"/>
<rect width="1" height="1" transform="matrix(4.37114e-08 -1 -1 -4.37114e-08 16 7)" fill="#B62A87"/>
<rect width="1" height="1" transform="matrix(4.37114e-08 -1 -1 -4.37114e-08 17 7)" fill="#B62A87"/>
<rect width="1" height="1" transform="matrix(4.37114e-08 -1 -1 -4.37114e-08 17 6)" fill="#B62A87"/>
<rect width="1" height="1" transform="matrix(4.37114e-08 -1 -1 -4.37114e-08 18 6)" fill="#B62A87"/>
<rect width="1" height="1" transform="matrix(4.37114e-08 -1 -1 -4.37114e-08 19 7)" fill="#B62A87"/>
<rect width="1" height="1" transform="matrix(4.37114e-08 -1 -1 -4.37114e-08 19 6)" fill="#B62A87"/>
<rect width="1" height="1" transform="matrix(4.37114e-08 -1 -1 -4.37114e-08 17 5)" fill="#B62A87"/>
<rect width="1" height="1" transform="matrix(4.37114e-08 -1 -1 -4.37114e-08 18 5)" fill="#B62A87"/>
<rect width="1" height="1" transform="matrix(4.37114e-08 -1 -1 -4.37114e-08 19 5)" fill="#B62A87"/>
<rect width="1" height="1" transform="matrix(4.37114e-08 -1 -1 -4.37114e-08 16 5)" fill="#B62A87"/>
<rect width="1" height="1" transform="matrix(4.37114e-08 -1 -1 -4.37114e-08 16 4)" fill="#B62A87"/>
<rect width="1" height="1" transform="matrix(4.37114e-08 -1 -1 -4.37114e-08 17 4)" fill="#B62A87"/>
<rect width="1" height="1" transform="matrix(4.37114e-08 -1 -1 -4.37114e-08 16 3)" fill="#B62A87"/>
<rect width="1" height="1" transform="matrix(4.37114e-08 -1 -1 -4.37114e-08 16 3)" fill="#B62A87"/>
<rect width="1" height="1" transform="matrix(4.37114e-08 -1 -1 -4.37114e-08 15 3)" fill="#B62A87"/>
<rect width="1" height="1" transform="matrix(4.37114e-08 -1 -1 -4.37114e-08 15 4)" fill="#B62A87"/>
<rect width="1" height="1" transform="matrix(4.37114e-08 -1 -1 -4.37114e-08 17 3)" fill="#B62A87"/>
<rect width="1" height="1" transform="matrix(4.37114e-08 -1 -1 -4.37114e-08 18 4)" fill="#B62A87"/>
<rect width="1" height="1" transform="matrix(4.37114e-08 -1 -1 -4.37114e-08 18 3)" fill="#B62A87"/>
<rect width="1" height="1" transform="matrix(4.37114e-08 -1 -1 -4.37114e-08 19 4)" fill="#B62A87"/>
<rect width="1" height="1" transform="matrix(4.37114e-08 -1 -1 -4.37114e-08 16 2)" fill="#B62A87"/>
<rect width="1" height="1" transform="matrix(4.37114e-08 -1 -1 -4.37114e-08 17 2)" fill="#B62A87"/>
<rect width="1" height="1" transform="matrix(4.37114e-08 -1 -1 -4.37114e-08 18 7)" fill="#B62A87"/>
<rect width="1" height="1" transform="matrix(4.37114e-08 -1 -1 -4.37114e-08 16 6)" fill="#B62A87"/>
<rect width="1" height="1" transform="matrix(4.37114e-08 -1 -1 -4.37114e-08 15 6)" fill="#B62A87"/>
<rect width="1" height="1" transform="matrix(4.37114e-08 -1 -1 -4.37114e-08 14 6)" fill="#7B70DE"/>
<rect width="1" height="1" transform="matrix(4.37114e-08 -1 -1 -4.37114e-08 13 6)" fill="#7B70DE"/>
<rect width="1" height="1" transform="matrix(4.37114e-08 -1 -1 -4.37114e-08 12 6)" fill="#7B70DE"/>
<rect width="1" height="1" transform="matrix(4.37114e-08 -1 -1 -4.37114e-08 11 6)" fill="#7B70DE"/>
<rect width="1" height="1" transform="matrix(4.37114e-08 -1 -1 -4.37114e-08 10 6)" fill="#7B70DE"/>
<rect width="1" height="1" transform="matrix(4.37114e-08 -1 -1 -4.37114e-08 9 6)" fill="#7B70DE"/>
<rect width="1" height="1" transform="matrix(4.37114e-08 -1 -1 -4.37114e-08 8 6)" fill="#7B70DE"/>
<path d="M8 5L8 4L7 4L7 5L8 5Z" fill="#7B70DE"/>
<path d="M9 5L9 4L8 4L8 5L9 5Z" fill="#7B70DE"/>
<path d="M10 5L10 4L9 4L9 5L10 5Z" fill="#7B70DE"/>
<path d="M11 5L11 4L10 4L10 5L11 5Z" fill="#7B70DE"/>
<path d="M12 5L12 4L11 4L11 5L12 5Z" fill="#7B70DE"/>
<path d="M13 5L13 4L12 4L12 5L13 5Z" fill="#7B70DE"/>
<path d="M14 5L14 4L13 4L13 5L14 5Z" fill="#B62A87"/>
<path d="M15 5L15 4L14 4L14 5L15 5Z" fill="#B62A87"/>
<path d="M14 4L14 3L13 3L13 4L14 4Z" fill="#B62A87"/>
<path d="M13 4L13 3L12 3L12 4L13 4Z" fill="#7B70DE"/>
<path d="M12 4L12 3L11 3L11 4L12 4Z" fill="#7B70DE"/>
<path d="M11 4L11 3L10 3L10 4L11 4Z" fill="#7B70DE"/>
<path d="M10 4L10 3L9 3L9 4L10 4Z" fill="#7B70DE"/>
<path d="M9 4L9 3L8 3L8 4L9 4Z" fill="#7B70DE"/>
<path d="M8 4L8 3L7 3L7 4L8 4Z" fill="#7B70DE"/>
<path d="M8 3L8 2L7 2L7 3L8 3Z" fill="#7B70DE"/>
<path d="M9 3L9 2L8 2L8 3L9 3Z" fill="#7B70DE"/>
<path d="M10 3L10 2L9 2L9 3L10 3Z" fill="#7B70DE"/>
<path d="M11 3L11 2L10 2L10 3L11 3Z" fill="#7B70DE"/>
<path d="M12 3L12 2L11 2L11 3L12 3Z" fill="#7B70DE"/>
<path d="M13 3L13 2L12 2L12 3L13 3Z" fill="#7B70DE"/>
<path d="M14 3L14 2L13 2L13 3L14 3Z" fill="#B62A87"/>
<path d="M13 2L13 1L12 1L12 2L13 2Z" fill="#7B70DE"/>
<path d="M12 2L12 1L11 1L11 2L12 2Z" fill="#7B70DE"/>
<path d="M11 2L11 1L10 1L10 2L11 2Z" fill="#7B70DE"/>
<path d="M10 2L10 1L9 1L9 2L10 2Z" fill="#7B70DE"/>
<path d="M9 2L9 1L8 1L8 2L9 2Z" fill="#7B70DE"/>
<path d="M8 2L8 1L7 1L7 2L8 2Z" fill="#7B70DE"/>
<path d="M8 10L8 9L7 9L7 10L8 10Z" fill="#7B70DE"/>
<path d="M7 10L7 9L6 9L6 10L7 10Z" fill="#7B70DE"/>
<path d="M6 10L6 9L5 9L5 10L6 10Z" fill="#7B70DE"/>
<path d="M5 10L5 9L4 9L4 10L5 10Z" fill="#7B70DE"/>
<path d="M4 10L4 9L3 9L3 10L4 10Z" fill="#7B70DE"/>
<path d="M3 10L3 9L2 9L2 10L3 10Z" fill="#7B70DE"/>
<path d="M5 11L5 10L4 10L4 11L5 11Z" fill="#7B70DE"/>
<path d="M6 11L6 10L5 10L5 11L6 11Z" fill="#7B70DE"/>
<path d="M7 11L7 10L6 10L6 11L7 11Z" fill="#7B70DE"/>
<path d="M13 10L13 9L12 9L12 10L13 10Z" fill="#7B70DE"/>
<path d="M18 10L18 9L17 9L17 10L18 10Z" fill="#7B70DE"/>
<path d="M17 10L17 9L16 9L16 10L17 10Z" fill="#7B70DE"/>
<path d="M16 10L16 9L15 9L15 10L16 10Z" fill="#7B70DE"/>
<path d="M15 10L15 9L14 9L14 10L15 10Z" fill="#7B70DE"/>
<path d="M14 10L14 9L13 9L13 10L14 10Z" fill="#7B70DE"/>
<path d="M14 11L14 10L13 10L13 11L14 11Z" fill="#7B70DE"/>
<path d="M15 11L15 10L14 10L14 11L15 11Z" fill="#7B70DE"/>
<path d="M16 11L16 10L15 10L15 11L16 11Z" fill="#7B70DE"/>
<rect width="1" height="1" transform="matrix(4.37114e-08 -1 -1 -4.37114e-08 4 8)" fill="#B62A87"/>
<rect width="1" height="1" transform="matrix(4.37114e-08 -1 -1 -4.37114e-08 5 8)" fill="#7B70DE"/>
<rect width="1" height="1" transform="matrix(4.37114e-08 -1 -1 -4.37114e-08 6 8)" fill="#7B70DE"/>
<rect width="1" height="1" transform="matrix(4.37114e-08 -1 -1 -4.37114e-08 7 8)" fill="#7B70DE"/>
<rect width="1" height="1" transform="matrix(4.37114e-08 -1 -1 -4.37114e-08 8 8)" fill="#7B70DE"/>
<rect width="1" height="1" transform="matrix(4.37114e-08 -1 -1 -4.37114e-08 9 8)" fill="#E9E8EF"/>
<rect width="1" height="1" transform="matrix(4.37114e-08 -1 -1 -4.37114e-08 10 8)" fill="#7B70DE"/>
<rect width="1" height="1" transform="matrix(4.37114e-08 -1 -1 -4.37114e-08 11 8)" fill="#7B70DE"/>
<rect width="1" height="1" transform="matrix(4.37114e-08 -1 -1 -4.37114e-08 12 8)" fill="#E9E8EF"/>
<rect width="1" height="1" transform="matrix(4.37114e-08 -1 -1 -4.37114e-08 13 8)" fill="#7B70DE"/>
<rect width="1" height="1" transform="matrix(4.37114e-08 -1 -1 -4.37114e-08 14 8)" fill="#7B70DE"/>
<rect width="1" height="1" transform="matrix(4.37114e-08 -1 -1 -4.37114e-08 15 8)" fill="#7B70DE"/>
<rect width="1" height="1" transform="matrix(4.37114e-08 -1 -1 -4.37114e-08 16 8)" fill="#7B70DE"/>
<rect width="1" height="1" transform="matrix(4.37114e-08 -1 -1 -4.37114e-08 17 8)" fill="#B62A87"/>
<rect width="1" height="1" transform="matrix(4.37114e-08 -1 -1 -4.37114e-08 18 8)" fill="#B62A87"/>
<rect width="1" height="1" transform="matrix(4.37114e-08 -1 -1 -4.37114e-08 19 8)" fill="#B62A87"/>
<rect x="10" y="9" width="1" height="1" fill="#503F51"/>
<rect x="11" y="9" width="1" height="1" fill="#503F51"/>
<rect x="10" y="14" width="1" height="1" fill="#503F51"/>
<rect x="11" y="14" width="1" height="1" fill="#503F51"/>
<rect x="7" y="11" width="1" height="1" transform="rotate(-90 7 11)" fill="#503F51"/>
<rect x="12" y="11" width="1" height="1" transform="rotate(-90 12 11)" fill="#503F51"/>
<rect width="1" height="1" transform="matrix(-1 0 0 1 16 17)" fill="#503F51"/>
<rect x="3" y="17" width="1" height="1" fill="#503F51"/>
<rect width="1" height="1" transform="matrix(-1 0 0 1 17 17)" fill="#503F51"/>
<rect x="2" y="16" width="1" height="1" fill="#503F51"/>
<rect x="2" y="15" width="1" height="1" fill="#503F51"/>
<rect width="1" height="1" transform="matrix(-1 0 0 1 18 16)" fill="#503F51"/>
<rect x="17" y="15" width="1" height="1" fill="#503F51"/>
<rect x="1" y="14" width="1" height="1" fill="#503F51"/>
<rect width="1" height="1" transform="matrix(-1 0 0 1 19 14)" fill="#503F51"/>
<rect x="1" y="13" width="1" height="1" fill="#503F51"/>
<rect width="1" height="1" transform="matrix(-1 0 0 1 19 13)" fill="#503F51"/>
<rect width="1" height="1" transform="matrix(1 0 0 -1 0 8)" fill="#503F51"/>
<rect y="12" width="1" height="1" fill="#503F51"/>
<rect x="20" y="8" width="1" height="1" transform="rotate(180 20 8)" fill="#503F51"/>
<rect x="20" y="8" width="1" height="1" transform="rotate(180 20 8)" fill="#503F51"/>
<rect width="1" height="1" transform="matrix(-1 0 0 1 20 12)" fill="#503F51"/>
<rect x="6" y="18" width="1" height="1" fill="#503F51"/>
<rect x="14" y="2" width="1" height="1" transform="rotate(180 14 2)" fill="#503F51"/>
<rect x="15" y="2" width="1" height="1" transform="rotate(180 15 2)" fill="#503F51"/>
<rect x="16" y="2" width="1" height="1" transform="rotate(180 16 2)" fill="#503F51"/>
<rect x="17" y="2" width="1" height="1" transform="rotate(180 17 2)" fill="#503F51"/>
<rect x="18" y="3" width="1" height="1" transform="rotate(180 18 3)" fill="#503F51"/>
<rect x="19" y="4" width="1" height="1" transform="rotate(180 19 4)" fill="#503F51"/>
<rect x="20" y="5" width="1" height="1" transform="rotate(180 20 5)" fill="#503F51"/>
<rect x="20" y="6" width="1" height="1" transform="rotate(180 20 6)" fill="#503F51"/>
<rect x="20" y="7" width="1" height="1" transform="rotate(180 20 7)" fill="#503F51"/>
<rect x="6" y="7" width="1" height="1" transform="rotate(-90 6 7)" fill="#7B70DE"/>
<rect x="5" y="7" width="1" height="1" transform="rotate(-90 5 7)" fill="#7B70DE"/>
<rect x="4" y="7" width="1" height="1" transform="rotate(-90 4 7)" fill="#B62A87"/>
<rect x="3" y="7" width="1" height="1" transform="rotate(-90 3 7)" fill="#B62A87"/>
<rect x="3" y="6" width="1" height="1" transform="rotate(-90 3 6)" fill="#B62A87"/>
<rect x="2" y="6" width="1" height="1" transform="rotate(-90 2 6)" fill="#B62A87"/>
<rect x="1" y="7" width="1" height="1" transform="rotate(-90 1 7)" fill="#B62A87"/>
<rect x="1" y="6" width="1" height="1" transform="rotate(-90 1 6)" fill="#B62A87"/>
<rect x="3" y="5" width="1" height="1" transform="rotate(-90 3 5)" fill="#B62A87"/>
<rect x="2" y="5" width="1" height="1" transform="rotate(-90 2 5)" fill="#B62A87"/>
<rect x="1" y="5" width="1" height="1" transform="rotate(-90 1 5)" fill="#B62A87"/>
<rect x="4" y="5" width="1" height="1" transform="rotate(-90 4 5)" fill="#B62A87"/>
<rect x="4" y="4" width="1" height="1" transform="rotate(-90 4 4)" fill="#B62A87"/>
<rect x="3" y="4" width="1" height="1" transform="rotate(-90 3 4)" fill="#B62A87"/>
<rect x="4" y="3" width="1" height="1" transform="rotate(-90 4 3)" fill="#B62A87"/>
<rect x="4" y="3" width="1" height="1" transform="rotate(-90 4 3)" fill="#B62A87"/>
<rect x="5" y="3" width="1" height="1" transform="rotate(-90 5 3)" fill="#B62A87"/>
<rect x="5" y="4" width="1" height="1" transform="rotate(-90 5 4)" fill="#B62A87"/>
<rect x="3" y="3" width="1" height="1" transform="rotate(-90 3 3)" fill="#B62A87"/>
<rect x="2" y="4" width="1" height="1" transform="rotate(-90 2 4)" fill="#B62A87"/>
<rect x="2" y="3" width="1" height="1" transform="rotate(-90 2 3)" fill="#B62A87"/>
<rect x="1" y="4" width="1" height="1" transform="rotate(-90 1 4)" fill="#B62A87"/>
<rect x="4" y="2" width="1" height="1" transform="rotate(-90 4 2)" fill="#B62A87"/>
<rect x="3" y="2" width="1" height="1" transform="rotate(-90 3 2)" fill="#B62A87"/>
<rect x="2" y="7" width="1" height="1" transform="rotate(-90 2 7)" fill="#B62A87"/>
<rect x="4" y="6" width="1" height="1" transform="rotate(-90 4 6)" fill="#B62A87"/>
<rect x="5" y="6" width="1" height="1" transform="rotate(-90 5 6)" fill="#B62A87"/>
<rect x="6" y="6" width="1" height="1" transform="rotate(-90 6 6)" fill="#7B70DE"/>
<path d="M6 5L6 4L7 4L7 5L6 5Z" fill="#B62A87"/>
<path d="M5 5L5 4L6 4L6 5L5 5Z" fill="#B62A87"/>
<path d="M6 4L6 3L7 3L7 4L6 4Z" fill="#B62A87"/>
<path d="M6 3L6 2L7 2L7 3L6 3Z" fill="#B62A87"/>
<rect width="1" height="1" transform="matrix(1 0 0 -1 6 2)" fill="#503F51"/>
<rect width="1" height="1" transform="matrix(1 0 0 -1 5 2)" fill="#503F51"/>
<rect width="1" height="1" transform="matrix(1 0 0 -1 4 2)" fill="#503F51"/>
<rect width="1" height="1" transform="matrix(1 0 0 -1 3 2)" fill="#503F51"/>
<rect width="1" height="1" transform="matrix(1 0 0 -1 2 3)" fill="#503F51"/>
<rect width="1" height="1" transform="matrix(1 0 0 -1 1 4)" fill="#503F51"/>
<rect width="1" height="1" transform="matrix(1 0 0 -1 0 5)" fill="#503F51"/>
<rect width="1" height="1" transform="matrix(1 0 0 -1 0 6)" fill="#503F51"/>
<rect width="1" height="1" transform="matrix(1 0 0 -1 0 7)" fill="#503F51"/>
<rect width="1" height="1" transform="matrix(-1 0 0 1 14 18)" fill="#503F51"/>
</svg>
