<svg width="40" height="40" viewBox="0 0 40 40" fill="none" xmlns="http://www.w3.org/2000/svg">
<g clip-path="url(#clip0_39_1143)">
<rect width="1.42857" height="1.42857" transform="matrix(1 0 0 -1 15.7142 7.14288)" fill="#DAD7F5"/>
<rect x="15.7142" y="32.8571" width="1.42857" height="1.42857" fill="#DAD7F5"/>
<rect x="24.2856" y="7.14288" width="1.42857" height="1.42857" transform="rotate(180 24.2856 7.14288)" fill="#DAD7F5"/>
<rect width="1.42857" height="1.42857" transform="matrix(-1 0 0 1 24.2856 32.8571)" fill="#DAD7F5"/>
<rect width="1.42857" height="1.42857" transform="matrix(1 0 0 -1 17.1428 7.14288)" fill="#DAD7F5"/>
<rect x="17.1428" y="32.8571" width="1.42857" height="1.42857" fill="#DAD7F5"/>
<rect x="22.8572" y="7.14288" width="1.42857" height="1.42857" transform="rotate(180 22.8572 7.14288)" fill="#DAD7F5"/>
<rect width="1.42857" height="1.42857" transform="matrix(-1 0 0 1 22.8572 32.8571)" fill="#DAD7F5"/>
<rect width="1.42857" height="1.42857" transform="matrix(1 0 0 -1 18.5714 7.14288)" fill="#DAD7F5"/>
<rect x="18.5714" y="32.8571" width="1.42857" height="1.42857" fill="#DAD7F5"/>
<rect x="21.4285" y="7.14288" width="1.42857" height="1.42857" transform="rotate(180 21.4285 7.14288)" fill="#DAD7F5"/>
<rect width="1.42857" height="1.42857" transform="matrix(-1 0 0 1 21.4285 32.8571)" fill="#DAD7F5"/>
<rect width="1.42857" height="1.42857" transform="matrix(1 0 0 -1 5.71423 18.5714)" fill="#DAD7F5"/>
<rect x="5.71423" y="21.4286" width="1.42857" height="1.42857" fill="#DAD7F5"/>
<rect x="34.2856" y="18.5714" width="1.42857" height="1.42857" transform="rotate(180 34.2856 18.5714)" fill="#DAD7F5"/>
<rect width="1.42857" height="1.42857" transform="matrix(-1 0 0 1 34.2856 21.4286)" fill="#DAD7F5"/>
<rect width="1.42857" height="1.42857" transform="matrix(1 0 0 -1 5.71423 20)" fill="#DAD7F5"/>
<rect x="5.71423" y="20" width="1.42857" height="1.42857" fill="#DAD7F5"/>
<rect x="34.2856" y="20" width="1.42857" height="1.42857" transform="rotate(180 34.2856 20)" fill="#DAD7F5"/>
<rect width="1.42857" height="1.42857" transform="matrix(-1 0 0 1 34.2856 20)" fill="#DAD7F5"/>
<rect width="1.42857" height="1.42857" transform="matrix(1 0 0 -1 12.8572 8.57147)" fill="#DAD7F5"/>
<rect x="12.8572" y="31.4285" width="1.42857" height="1.42857" fill="#DAD7F5"/>
<rect x="27.1428" y="8.57147" width="1.42857" height="1.42857" transform="rotate(180 27.1428 8.57147)" fill="#DAD7F5"/>
<rect width="1.42857" height="1.42857" transform="matrix(-1 0 0 1 27.1428 31.4285)" fill="#DAD7F5"/>
<rect width="1.42857" height="1.42857" transform="matrix(1 0 0 -1 11.4286 9.99994)" fill="#DAD7F5"/>
<rect x="11.4286" y="30.0001" width="1.42857" height="1.42857" fill="#DAD7F5"/>
<rect x="17.1428" y="18.5714" width="1.42857" height="1.42857" fill="#DAD7F5"/>
<rect x="17.1428" y="25.7142" width="1.42857" height="1.42857" fill="#DAD7F5"/>
<rect x="15.7142" y="24.2857" width="1.42857" height="1.42857" transform="rotate(-90 15.7142 24.2857)" fill="#DAD7F5"/>
<rect x="15.7142" y="25.7142" width="1.42857" height="1.42857" transform="rotate(-90 15.7142 25.7142)" fill="#DAD7F5"/>
<rect x="22.8572" y="24.2857" width="1.42857" height="1.42857" transform="rotate(-90 22.8572 24.2857)" fill="#DAD7F5"/>
<rect x="22.8572" y="25.7142" width="1.42857" height="1.42857" transform="rotate(-90 22.8572 25.7142)" fill="#DAD7F5"/>
<rect x="18.5714" y="18.5714" width="1.42857" height="1.42857" fill="#DAD7F5"/>
<rect x="18.5714" y="25.7142" width="1.42857" height="1.42857" fill="#DAD7F5"/>
<rect x="15.7142" y="22.8572" width="1.42857" height="1.42857" transform="rotate(-90 15.7142 22.8572)" fill="#DAD7F5"/>
<rect x="22.8572" y="22.8572" width="1.42857" height="1.42857" transform="rotate(-90 22.8572 22.8572)" fill="#DAD7F5"/>
<rect x="24.2856" y="22.8572" width="1.42857" height="1.42857" transform="rotate(-90 24.2856 22.8572)" fill="#DAD7F5"/>
<rect width="1.42857" height="1.42857" transform="matrix(4.37114e-08 -1 -1 -4.37114e-08 15.7142 22.8572)" fill="#DAD7F5"/>
<rect x="25.7144" y="22.8572" width="1.42857" height="1.42857" transform="rotate(-90 25.7144 22.8572)" fill="#DAD7F5"/>
<rect width="1.42857" height="1.42857" transform="matrix(4.37114e-08 -1 -1 -4.37114e-08 14.2856 22.8572)" fill="#DAD7F5"/>
<rect x="28.5713" y="21.4286" width="1.42857" height="1.42857" transform="rotate(-90 28.5713 21.4286)" fill="#DAD7F5"/>
<rect width="1.42857" height="1.42857" transform="matrix(4.37114e-08 -1 -1 -4.37114e-08 11.4286 21.4286)" fill="#DAD7F5"/>
<rect x="27.1428" y="22.8572" width="1.42857" height="1.42857" transform="rotate(-90 27.1428 22.8572)" fill="#DAD7F5"/>
<rect width="1.42857" height="1.42857" transform="matrix(4.37114e-08 -1 -1 -4.37114e-08 12.8572 22.8572)" fill="#DAD7F5"/>
<rect x="30" y="21.4286" width="1.42857" height="1.42857" transform="rotate(-90 30 21.4286)" fill="#DAD7F5"/>
<rect width="1.42857" height="1.42857" transform="matrix(4.37114e-08 -1 -1 -4.37114e-08 10 21.4286)" fill="#DAD7F5"/>
<rect x="31.4285" y="20" width="1.42857" height="1.42857" transform="rotate(-90 31.4285 20)" fill="#DAD7F5"/>
<rect width="1.42857" height="1.42857" transform="matrix(4.37114e-08 -1 -1 -4.37114e-08 8.57141 20)" fill="#DAD7F5"/>
<rect width="1.42857" height="1.42857" transform="matrix(4.37114e-08 -1 -1 -4.37114e-08 8.57141 18.5714)" fill="#DAD7F5"/>
<rect width="1.42857" height="1.42857" transform="matrix(4.37114e-08 -1 -1 -4.37114e-08 8.57141 21.4286)" fill="#E9E8EF"/>
<rect width="1.42857" height="1.42857" transform="matrix(4.37114e-08 -1 -1 -4.37114e-08 8.57141 22.8572)" fill="#E9E8EF"/>
<rect width="1.42857" height="1.42857" transform="matrix(4.37114e-08 -1 -1 -4.37114e-08 8.57141 24.2857)" fill="#E9E8EF"/>
<rect width="1.42857" height="1.42857" transform="matrix(4.37114e-08 -1 -1 -4.37114e-08 10 22.8572)" fill="#E9E8EF"/>
<rect width="1.42857" height="1.42857" transform="matrix(4.37114e-08 -1 -1 -4.37114e-08 10 24.2857)" fill="#E9E8EF"/>
<rect width="1.42857" height="1.42857" transform="matrix(4.37114e-08 -1 -1 -4.37114e-08 10 25.7142)" fill="#E9E8EF"/>
<rect width="1.42857" height="1.42857" transform="matrix(4.37114e-08 -1 -1 -4.37114e-08 10 27.1428)" fill="#E9E8EF"/>
<rect width="1.42857" height="1.42857" transform="matrix(4.37114e-08 -1 -1 -4.37114e-08 11.4286 22.8572)" fill="#E9E8EF"/>
<rect width="1.42857" height="1.42857" transform="matrix(4.37114e-08 -1 -1 -4.37114e-08 11.4286 24.2857)" fill="#E9E8EF"/>
<rect width="1.42857" height="1.42857" transform="matrix(4.37114e-08 -1 -1 -4.37114e-08 11.4286 25.7142)" fill="#E9E8EF"/>
<rect width="1.42857" height="1.42857" transform="matrix(4.37114e-08 -1 -1 -4.37114e-08 11.4286 27.1428)" fill="#E9E8EF"/>
<rect width="1.42857" height="1.42857" transform="matrix(4.37114e-08 -1 -1 -4.37114e-08 11.4286 28.5714)" fill="#E9E8EF"/>
<rect width="1.42857" height="1.42857" transform="matrix(4.37114e-08 -1 -1 -4.37114e-08 11.4286 30.0001)" fill="#E9E8EF"/>
<rect width="1.42857" height="1.42857" transform="matrix(4.37114e-08 -1 -1 -4.37114e-08 12.8572 24.2857)" fill="#E9E8EF"/>
<rect width="1.42857" height="1.42857" transform="matrix(4.37114e-08 -1 -1 -4.37114e-08 12.8572 25.7142)" fill="#E9E8EF"/>
<rect width="1.42857" height="1.42857" transform="matrix(4.37114e-08 -1 -1 -4.37114e-08 12.8572 27.1428)" fill="#E9E8EF"/>
<rect width="1.42857" height="1.42857" transform="matrix(4.37114e-08 -1 -1 -4.37114e-08 12.8572 28.5714)" fill="#E9E8EF"/>
<rect width="1.42857" height="1.42857" transform="matrix(4.37114e-08 -1 -1 -4.37114e-08 12.8572 30.0001)" fill="#E9E8EF"/>
<rect width="1.42857" height="1.42857" transform="matrix(4.37114e-08 -1 -1 -4.37114e-08 14.2856 24.2857)" fill="#E9E8EF"/>
<rect width="1.42857" height="1.42857" transform="matrix(4.37114e-08 -1 -1 -4.37114e-08 14.2856 25.7142)" fill="#E9E8EF"/>
<rect width="1.42857" height="1.42857" transform="matrix(4.37114e-08 -1 -1 -4.37114e-08 14.2856 27.1428)" fill="#E9E8EF"/>
<rect width="1.42857" height="1.42857" transform="matrix(4.37114e-08 -1 -1 -4.37114e-08 14.2856 28.5714)" fill="#E9E8EF"/>
<rect width="1.42857" height="1.42857" transform="matrix(4.37114e-08 -1 -1 -4.37114e-08 14.2856 30.0001)" fill="#E9E8EF"/>
<rect width="1.42857" height="1.42857" transform="matrix(4.37114e-08 -1 -1 -4.37114e-08 14.2856 31.4285)" fill="#E9E8EF"/>
<rect width="1.42857" height="1.42857" transform="matrix(4.37114e-08 -1 -1 -4.37114e-08 15.7142 24.2857)" fill="#E9E8EF"/>
<rect width="1.42857" height="1.42857" transform="matrix(4.37114e-08 -1 -1 -4.37114e-08 15.7142 25.7142)" fill="#E9E8EF"/>
<rect width="1.42857" height="1.42857" transform="matrix(4.37114e-08 -1 -1 -4.37114e-08 15.7142 27.1428)" fill="#E9E8EF"/>
<rect width="1.42857" height="1.42857" transform="matrix(4.37114e-08 -1 -1 -4.37114e-08 15.7142 28.5714)" fill="#E9E8EF"/>
<rect width="1.42857" height="1.42857" transform="matrix(4.37114e-08 -1 -1 -4.37114e-08 15.7142 30.0001)" fill="#E9E8EF"/>
<rect width="1.42857" height="1.42857" transform="matrix(4.37114e-08 -1 -1 -4.37114e-08 15.7142 31.4285)" fill="#E9E8EF"/>
<rect width="1.42857" height="1.42857" transform="matrix(4.37114e-08 -1 -1 -4.37114e-08 17.1428 27.1428)" fill="#E9E8EF"/>
<rect width="1.42857" height="1.42857" transform="matrix(4.37114e-08 -1 -1 -4.37114e-08 17.1428 28.5714)" fill="#E9E8EF"/>
<rect width="1.42857" height="1.42857" transform="matrix(4.37114e-08 -1 -1 -4.37114e-08 17.1428 30.0001)" fill="#E9E8EF"/>
<rect width="1.42857" height="1.42857" transform="matrix(4.37114e-08 -1 -1 -4.37114e-08 17.1428 31.4285)" fill="#E9E8EF"/>
<rect width="1.42857" height="1.42857" transform="matrix(4.37114e-08 -1 -1 -4.37114e-08 17.1428 32.8571)" fill="#E9E8EF"/>
<rect width="1.42857" height="1.42857" transform="matrix(4.37114e-08 -1 -1 -4.37114e-08 18.5714 28.5714)" fill="#E9E8EF"/>
<rect width="1.42857" height="1.42857" transform="matrix(4.37114e-08 -1 -1 -4.37114e-08 20 28.5714)" fill="#E9E8EF"/>
<rect width="1.42857" height="1.42857" transform="matrix(4.37114e-08 -1 -1 -4.37114e-08 21.4285 28.5714)" fill="#E9E8EF"/>
<rect width="1.42857" height="1.42857" transform="matrix(4.37114e-08 -1 -1 -4.37114e-08 22.8572 28.5714)" fill="#E9E8EF"/>
<rect width="1.42857" height="1.42857" transform="matrix(4.37114e-08 -1 -1 -4.37114e-08 24.2856 28.5714)" fill="#E9E8EF"/>
<rect width="1.42857" height="1.42857" transform="matrix(4.37114e-08 -1 -1 -4.37114e-08 27.1428 27.1428)" fill="#E9E8EF"/>
<rect width="1.42857" height="1.42857" transform="matrix(4.37114e-08 -1 -1 -4.37114e-08 30 25.7142)" fill="#E9E8EF"/>
<rect width="1.42857" height="1.42857" transform="matrix(4.37114e-08 -1 -1 -4.37114e-08 28.5713 25.7142)" fill="#E9E8EF"/>
<rect width="1.42857" height="1.42857" transform="matrix(4.37114e-08 -1 -1 -4.37114e-08 25.7144 27.1428)" fill="#E9E8EF"/>
<rect width="1.42857" height="1.42857" transform="matrix(4.37114e-08 -1 -1 -4.37114e-08 24.2856 27.1428)" fill="#E9E8EF"/>
<rect width="1.42857" height="1.42857" transform="matrix(4.37114e-08 -1 -1 -4.37114e-08 25.7144 25.7142)" fill="#E9E8EF"/>
<rect width="1.42857" height="1.42857" transform="matrix(4.37114e-08 -1 -1 -4.37114e-08 27.1428 24.2857)" fill="#E9E8EF"/>
<rect width="1.42857" height="1.42857" transform="matrix(4.37114e-08 -1 -1 -4.37114e-08 25.7144 24.2857)" fill="#E9E8EF"/>
<rect width="1.42857" height="1.42857" transform="matrix(4.37114e-08 -1 -1 -4.37114e-08 27.1428 25.7142)" fill="#E9E8EF"/>
<rect width="1.42857" height="1.42857" transform="matrix(4.37114e-08 -1 -1 -4.37114e-08 30 24.2857)" fill="#E9E8EF"/>
<rect width="1.42857" height="1.42857" transform="matrix(4.37114e-08 -1 -1 -4.37114e-08 28.5713 24.2857)" fill="#E9E8EF"/>
<rect width="1.42857" height="1.42857" transform="matrix(4.37114e-08 -1 -1 -4.37114e-08 30 22.8572)" fill="#E9E8EF"/>
<rect width="1.42857" height="1.42857" transform="matrix(4.37114e-08 -1 -1 -4.37114e-08 32.8572 21.4286)" fill="#E9E8EF"/>
<rect width="1.42857" height="1.42857" transform="matrix(4.37114e-08 -1 -1 -4.37114e-08 32.8572 22.8572)" fill="#E9E8EF"/>
<rect width="1.42857" height="1.42857" transform="matrix(4.37114e-08 -1 -1 -4.37114e-08 32.8572 24.2857)" fill="#E9E8EF"/>
<rect width="1.42857" height="1.42857" transform="matrix(4.37114e-08 -1 -1 -4.37114e-08 31.4285 25.7142)" fill="#E9E8EF"/>
<rect width="1.42857" height="1.42857" transform="matrix(4.37114e-08 -1 -1 -4.37114e-08 31.4285 27.1428)" fill="#E9E8EF"/>
<rect width="1.42857" height="1.42857" transform="matrix(4.37114e-08 -1 -1 -4.37114e-08 31.4285 24.2857)" fill="#E9E8EF"/>
<rect width="1.42857" height="1.42857" transform="matrix(4.37114e-08 -1 -1 -4.37114e-08 31.4285 22.8572)" fill="#E9E8EF"/>
<rect width="1.42857" height="1.42857" transform="matrix(4.37114e-08 -1 -1 -4.37114e-08 18.5714 30.0001)" fill="#E9E8EF"/>
<rect width="1.42857" height="1.42857" transform="matrix(4.37114e-08 -1 -1 -4.37114e-08 20 30.0001)" fill="#E9E8EF"/>
<rect width="1.42857" height="1.42857" transform="matrix(4.37114e-08 -1 -1 -4.37114e-08 21.4285 30.0001)" fill="#E9E8EF"/>
<rect width="1.42857" height="1.42857" transform="matrix(4.37114e-08 -1 -1 -4.37114e-08 18.5714 21.4286)" fill="#E9E8EF"/>
<rect width="1.42857" height="1.42857" transform="matrix(4.37114e-08 -1 -1 -4.37114e-08 18.5714 22.8572)" fill="#E9E8EF"/>
<rect width="1.42857" height="1.42857" transform="matrix(4.37114e-08 -1 -1 -4.37114e-08 18.5714 24.2857)" fill="#E9E8EF"/>
<rect width="1.42857" height="1.42857" transform="matrix(4.37114e-08 -1 -1 -4.37114e-08 18.5714 25.7142)" fill="#E9E8EF"/>
<rect width="1.42857" height="1.42857" transform="matrix(4.37114e-08 -1 -1 -4.37114e-08 20 21.4286)" fill="#E9E8EF"/>
<rect width="1.42857" height="1.42857" transform="matrix(4.37114e-08 -1 -1 -4.37114e-08 20 22.8572)" fill="#E9E8EF"/>
<rect width="1.42857" height="1.42857" transform="matrix(4.37114e-08 -1 -1 -4.37114e-08 20 24.2857)" fill="#E9E8EF"/>
<rect width="1.42857" height="1.42857" transform="matrix(4.37114e-08 -1 -1 -4.37114e-08 20 25.7142)" fill="#E9E8EF"/>
<rect width="1.42857" height="1.42857" transform="matrix(4.37114e-08 -1 -1 -4.37114e-08 21.4285 21.4286)" fill="#E9E8EF"/>
<rect width="1.42857" height="1.42857" transform="matrix(4.37114e-08 -1 -1 -4.37114e-08 21.4285 22.8572)" fill="#E9E8EF"/>
<rect width="1.42857" height="1.42857" transform="matrix(4.37114e-08 -1 -1 -4.37114e-08 21.4285 24.2857)" fill="#E9E8EF"/>
<rect width="1.42857" height="1.42857" transform="matrix(4.37114e-08 -1 -1 -4.37114e-08 21.4285 25.7142)" fill="#E9E8EF"/>
<rect width="1.42857" height="1.42857" transform="matrix(4.37114e-08 -1 -1 -4.37114e-08 22.8572 21.4286)" fill="#E9E8EF"/>
<rect width="1.42857" height="1.42857" transform="matrix(4.37114e-08 -1 -1 -4.37114e-08 22.8572 22.8572)" fill="#E9E8EF"/>
<rect width="1.42857" height="1.42857" transform="matrix(4.37114e-08 -1 -1 -4.37114e-08 22.8572 24.2857)" fill="#E9E8EF"/>
<rect width="1.42857" height="1.42857" transform="matrix(4.37114e-08 -1 -1 -4.37114e-08 22.8572 25.7142)" fill="#E9E8EF"/>
<rect width="1.42857" height="1.42857" transform="matrix(4.37114e-08 -1 -1 -4.37114e-08 22.8572 30.0001)" fill="#E9E8EF"/>
<rect width="1.42857" height="1.42857" transform="matrix(4.37114e-08 -1 -1 -4.37114e-08 24.2856 30.0001)" fill="#E9E8EF"/>
<rect width="1.42857" height="1.42857" transform="matrix(4.37114e-08 -1 -1 -4.37114e-08 27.1428 28.5714)" fill="#E9E8EF"/>
<rect width="1.42857" height="1.42857" transform="matrix(4.37114e-08 -1 -1 -4.37114e-08 30 27.1428)" fill="#E9E8EF"/>
<rect width="1.42857" height="1.42857" transform="matrix(4.37114e-08 -1 -1 -4.37114e-08 28.5713 27.1428)" fill="#E9E8EF"/>
<rect width="1.42857" height="1.42857" transform="matrix(4.37114e-08 -1 -1 -4.37114e-08 25.7144 28.5714)" fill="#E9E8EF"/>
<rect width="1.42857" height="1.42857" transform="matrix(4.37114e-08 -1 -1 -4.37114e-08 24.2856 28.5714)" fill="#E9E8EF"/>
<rect width="1.42857" height="1.42857" transform="matrix(4.37114e-08 -1 -1 -4.37114e-08 18.5714 31.4285)" fill="#E9E8EF"/>
<rect width="1.42857" height="1.42857" transform="matrix(4.37114e-08 -1 -1 -4.37114e-08 20 31.4285)" fill="#E9E8EF"/>
<rect width="1.42857" height="1.42857" transform="matrix(4.37114e-08 -1 -1 -4.37114e-08 21.4285 31.4285)" fill="#E9E8EF"/>
<rect width="1.42857" height="1.42857" transform="matrix(4.37114e-08 -1 -1 -4.37114e-08 22.8572 31.4285)" fill="#E9E8EF"/>
<rect width="1.42857" height="1.42857" transform="matrix(4.37114e-08 -1 -1 -4.37114e-08 24.2856 31.4285)" fill="#E9E8EF"/>
<rect width="1.42857" height="1.42857" transform="matrix(4.37114e-08 -1 -1 -4.37114e-08 27.1428 30.0001)" fill="#E9E8EF"/>
<rect width="1.42857" height="1.42857" transform="matrix(4.37114e-08 -1 -1 -4.37114e-08 30 28.5714)" fill="#E9E8EF"/>
<rect width="1.42857" height="1.42857" transform="matrix(4.37114e-08 -1 -1 -4.37114e-08 28.5713 28.5714)" fill="#E9E8EF"/>
<rect width="1.42857" height="1.42857" transform="matrix(4.37114e-08 -1 -1 -4.37114e-08 25.7144 30.0001)" fill="#E9E8EF"/>
<rect width="1.42857" height="1.42857" transform="matrix(4.37114e-08 -1 -1 -4.37114e-08 24.2856 30.0001)" fill="#E9E8EF"/>
<rect width="1.42857" height="1.42857" transform="matrix(4.37114e-08 -1 -1 -4.37114e-08 18.5714 32.8571)" fill="#E9E8EF"/>
<rect width="1.42857" height="1.42857" transform="matrix(4.37114e-08 -1 -1 -4.37114e-08 20 32.8571)" fill="#E9E8EF"/>
<rect width="1.42857" height="1.42857" transform="matrix(4.37114e-08 -1 -1 -4.37114e-08 21.4285 32.8571)" fill="#E9E8EF"/>
<rect width="1.42857" height="1.42857" transform="matrix(4.37114e-08 -1 -1 -4.37114e-08 22.8572 32.8571)" fill="#E9E8EF"/>
<rect width="1.42857" height="1.42857" transform="matrix(4.37114e-08 -1 -1 -4.37114e-08 24.2856 32.8571)" fill="#E9E8EF"/>
<rect width="1.42857" height="1.42857" transform="matrix(4.37114e-08 -1 -1 -4.37114e-08 27.1428 31.4285)" fill="#E9E8EF"/>
<rect width="1.42857" height="1.42857" transform="matrix(4.37114e-08 -1 -1 -4.37114e-08 30 30.0001)" fill="#E9E8EF"/>
<rect width="1.42857" height="1.42857" transform="matrix(4.37114e-08 -1 -1 -4.37114e-08 28.5713 30.0001)" fill="#E9E8EF"/>
<rect width="1.42857" height="1.42857" transform="matrix(4.37114e-08 -1 -1 -4.37114e-08 25.7144 31.4285)" fill="#E9E8EF"/>
<rect width="1.42857" height="1.42857" transform="matrix(4.37114e-08 -1 -1 -4.37114e-08 24.2856 31.4285)" fill="#E9E8EF"/>
<rect width="1.42857" height="1.42857" transform="matrix(4.37114e-08 -1 -1 -4.37114e-08 10 18.5714)" fill="#DAD7F5"/>
<rect width="1.42857" height="1.42857" transform="matrix(4.37114e-08 -1 -1 -4.37114e-08 11.4286 18.5714)" fill="#DAD7F5"/>
<rect width="1.42857" height="1.42857" transform="matrix(4.37114e-08 -1 -1 -4.37114e-08 12.8572 18.5714)" fill="#DAD7F5"/>
<rect width="1.42857" height="1.42857" transform="matrix(4.37114e-08 -1 -1 -4.37114e-08 14.2856 18.5714)" fill="#DAD7F5"/>
<rect width="1.42857" height="1.42857" transform="matrix(4.37114e-08 -1 -1 -4.37114e-08 15.7142 18.5714)" fill="#DAD7F5"/>
<rect width="1.42857" height="1.42857" transform="matrix(4.37114e-08 -1 -1 -4.37114e-08 17.1428 18.5714)" fill="#DAD7F5"/>
<rect width="1.42857" height="1.42857" transform="matrix(4.37114e-08 -1 -1 -4.37114e-08 18.5714 18.5714)" fill="#DAD7F5"/>
<rect width="1.42857" height="1.42857" transform="matrix(4.37114e-08 -1 -1 -4.37114e-08 20 18.5714)" fill="#DAD7F5"/>
<rect width="1.42857" height="1.42857" transform="matrix(4.37114e-08 -1 -1 -4.37114e-08 21.4285 18.5714)" fill="#DAD7F5"/>
<rect width="1.42857" height="1.42857" transform="matrix(4.37114e-08 -1 -1 -4.37114e-08 22.8572 18.5714)" fill="#DAD7F5"/>
<rect width="1.42857" height="1.42857" transform="matrix(4.37114e-08 -1 -1 -4.37114e-08 24.2856 18.5714)" fill="#DAD7F5"/>
<rect width="1.42857" height="1.42857" transform="matrix(4.37114e-08 -1 -1 -4.37114e-08 25.7144 18.5714)" fill="#DAD7F5"/>
<rect width="1.42857" height="1.42857" transform="matrix(4.37114e-08 -1 -1 -4.37114e-08 27.1428 18.5714)" fill="#DAD7F5"/>
<rect width="1.42857" height="1.42857" transform="matrix(4.37114e-08 -1 -1 -4.37114e-08 28.5713 18.5714)" fill="#DAD7F5"/>
<rect width="1.42857" height="1.42857" transform="matrix(4.37114e-08 -1 -1 -4.37114e-08 30 18.5714)" fill="#DAD7F5"/>
<rect width="1.42857" height="1.42857" transform="matrix(4.37114e-08 -1 -1 -4.37114e-08 31.4285 18.5714)" fill="#DAD7F5"/>
<rect width="1.42857" height="1.42857" transform="matrix(4.37114e-08 -1 -1 -4.37114e-08 32.8572 18.5714)" fill="#DAD7F5"/>
<rect width="1.42857" height="1.42857" transform="matrix(4.37114e-08 -1 -1 -4.37114e-08 8.57141 17.1428)" fill="#DAD7F5"/>
<rect width="1.42857" height="1.42857" transform="matrix(4.37114e-08 -1 -1 -4.37114e-08 10 17.1428)" fill="#DAD7F5"/>
<rect width="1.42857" height="1.42857" transform="matrix(4.37114e-08 -1 -1 -4.37114e-08 10 15.7143)" fill="#DAD7F5"/>
<rect width="1.42857" height="1.42857" transform="matrix(4.37114e-08 -1 -1 -4.37114e-08 11.4286 15.7143)" fill="#DAD7F5"/>
<rect width="1.42857" height="1.42857" transform="matrix(4.37114e-08 -1 -1 -4.37114e-08 12.8572 15.7143)" fill="#DAD7F5"/>
<rect width="1.42857" height="1.42857" transform="matrix(4.37114e-08 -1 -1 -4.37114e-08 14.2856 15.7143)" fill="#DAD7F5"/>
<rect width="1.42857" height="1.42857" transform="matrix(4.37114e-08 -1 -1 -4.37114e-08 15.7142 15.7143)" fill="#DAD7F5"/>
<rect width="1.42857" height="1.42857" transform="matrix(4.37114e-08 -1 -1 -4.37114e-08 17.1428 15.7143)" fill="#DAD7F5"/>
<rect width="1.42857" height="1.42857" transform="matrix(4.37114e-08 -1 -1 -4.37114e-08 18.5714 15.7143)" fill="#DAD7F5"/>
<rect width="1.42857" height="1.42857" transform="matrix(4.37114e-08 -1 -1 -4.37114e-08 20 15.7143)" fill="#DAD7F5"/>
<rect width="1.42857" height="1.42857" transform="matrix(4.37114e-08 -1 -1 -4.37114e-08 21.4285 15.7143)" fill="#DAD7F5"/>
<rect width="1.42857" height="1.42857" transform="matrix(4.37114e-08 -1 -1 -4.37114e-08 22.8572 15.7143)" fill="#DAD7F5"/>
<rect width="1.42857" height="1.42857" transform="matrix(4.37114e-08 -1 -1 -4.37114e-08 24.2856 15.7143)" fill="#DAD7F5"/>
<rect width="1.42857" height="1.42857" transform="matrix(4.37114e-08 -1 -1 -4.37114e-08 25.7144 15.7143)" fill="#DAD7F5"/>
<rect width="1.42857" height="1.42857" transform="matrix(4.37114e-08 -1 -1 -4.37114e-08 27.1428 15.7143)" fill="#DAD7F5"/>
<rect width="1.42857" height="1.42857" transform="matrix(4.37114e-08 -1 -1 -4.37114e-08 28.5713 15.7143)" fill="#DAD7F5"/>
<rect width="1.42857" height="1.42857" transform="matrix(4.37114e-08 -1 -1 -4.37114e-08 30 15.7143)" fill="#DAD7F5"/>
<rect width="1.42857" height="1.42857" transform="matrix(4.37114e-08 -1 -1 -4.37114e-08 31.4285 15.7143)" fill="#DAD7F5"/>
<rect width="1.42857" height="1.42857" transform="matrix(4.37114e-08 -1 -1 -4.37114e-08 31.4285 14.2857)" fill="#DAD7F5"/>
<rect width="1.42857" height="1.42857" transform="matrix(4.37114e-08 -1 -1 -4.37114e-08 30 14.2857)" fill="#DAD7F5"/>
<rect width="1.42857" height="1.42857" transform="matrix(4.37114e-08 -1 -1 -4.37114e-08 28.5713 14.2857)" fill="#DAD7F5"/>
<rect width="1.42857" height="1.42857" transform="matrix(4.37114e-08 -1 -1 -4.37114e-08 27.1428 14.2857)" fill="#DAD7F5"/>
<rect width="1.42857" height="1.42857" transform="matrix(4.37114e-08 -1 -1 -4.37114e-08 25.7144 14.2857)" fill="#DAD7F5"/>
<rect width="1.42857" height="1.42857" transform="matrix(4.37114e-08 -1 -1 -4.37114e-08 24.2856 14.2857)" fill="#DAD7F5"/>
<rect width="1.42857" height="1.42857" transform="matrix(4.37114e-08 -1 -1 -4.37114e-08 22.8572 14.2857)" fill="#DAD7F5"/>
<rect width="1.42857" height="1.42857" transform="matrix(4.37114e-08 -1 -1 -4.37114e-08 21.4285 14.2857)" fill="#DAD7F5"/>
<rect width="1.42857" height="1.42857" transform="matrix(4.37114e-08 -1 -1 -4.37114e-08 20 14.2857)" fill="#DAD7F5"/>
<rect width="1.42857" height="1.42857" transform="matrix(4.37114e-08 -1 -1 -4.37114e-08 18.5714 14.2857)" fill="#DAD7F5"/>
<rect width="1.42857" height="1.42857" transform="matrix(4.37114e-08 -1 -1 -4.37114e-08 17.1428 14.2857)" fill="#DAD7F5"/>
<rect width="1.42857" height="1.42857" transform="matrix(4.37114e-08 -1 -1 -4.37114e-08 15.7142 14.2857)" fill="#DAD7F5"/>
<rect width="1.42857" height="1.42857" transform="matrix(4.37114e-08 -1 -1 -4.37114e-08 14.2856 14.2857)" fill="#DAD7F5"/>
<rect width="1.42857" height="1.42857" transform="matrix(4.37114e-08 -1 -1 -4.37114e-08 12.8572 14.2857)" fill="#E9E8EF"/>
<rect width="1.42857" height="1.42857" transform="matrix(4.37114e-08 -1 -1 -4.37114e-08 11.4286 14.2857)" fill="#DAD7F5"/>
<path d="M10 14.2857L10 12.8571L8.57143 12.8571L8.57143 14.2857L10 14.2857Z" fill="#DAD7F5"/>
<path d="M11.4286 12.8572L11.4286 11.4286L10 11.4286L10 12.8572L11.4286 12.8572Z" fill="#DAD7F5"/>
<path d="M12.8572 12.8572L12.8572 11.4286L11.4286 11.4286L11.4286 12.8572L12.8572 12.8572Z" fill="#DAD7F5"/>
<path d="M14.2856 12.8572L14.2856 11.4286L12.8571 11.4286L12.8571 12.8572L14.2856 12.8572Z" fill="#E9E8EF"/>
<path d="M15.7142 12.8572L15.7142 11.4286L14.2857 11.4286L14.2857 12.8572L15.7142 12.8572Z" fill="#DAD7F5"/>
<path d="M17.1428 12.8572L17.1428 11.4286L15.7143 11.4286L15.7143 12.8572L17.1428 12.8572Z" fill="#DAD7F5"/>
<path d="M18.5714 12.8572L18.5714 11.4286L17.1428 11.4286L17.1428 12.8572L18.5714 12.8572Z" fill="#DAD7F5"/>
<path d="M20 12.8572L20 11.4286L18.5714 11.4286L18.5714 12.8572L20 12.8572Z" fill="#DAD7F5"/>
<path d="M21.4285 12.8572L21.4285 11.4286L19.9999 11.4286L19.9999 12.8572L21.4285 12.8572Z" fill="#DAD7F5"/>
<path d="M22.8572 12.8572L22.8572 11.4286L21.4286 11.4286L21.4286 12.8572L22.8572 12.8572Z" fill="#DAD7F5"/>
<path d="M24.2856 12.8572L24.2856 11.4286L22.8571 11.4286L22.8571 12.8572L24.2856 12.8572Z" fill="#DAD7F5"/>
<path d="M25.7144 12.8572L25.7144 11.4286L24.2858 11.4286L24.2858 12.8572L25.7144 12.8572Z" fill="#DAD7F5"/>
<path d="M27.1428 12.8572L27.1428 11.4286L25.7143 11.4286L25.7143 12.8572L27.1428 12.8572Z" fill="#DAD7F5"/>
<path d="M28.5713 12.8572L28.5713 11.4286L27.1427 11.4286L27.1427 12.8572L28.5713 12.8572Z" fill="#DAD7F5"/>
<path d="M30 12.8572L30 11.4286L28.5714 11.4286L28.5714 12.8572L30 12.8572Z" fill="#DAD7F5"/>
<path d="M30 11.4286L30 10L28.5714 10L28.5714 11.4286L30 11.4286Z" fill="#DAD7F5"/>
<path d="M28.5713 11.4286L28.5713 10L27.1427 10L27.1427 11.4286L28.5713 11.4286Z" fill="#DAD7F5"/>
<path d="M27.1428 11.4286L27.1428 10L25.7143 10L25.7143 11.4286L27.1428 11.4286Z" fill="#DAD7F5"/>
<path d="M25.7144 11.4286L25.7144 10L24.2858 10L24.2858 11.4286L25.7144 11.4286Z" fill="#DAD7F5"/>
<path d="M24.2856 11.4286L24.2856 10L22.8571 10L22.8571 11.4286L24.2856 11.4286Z" fill="#DAD7F5"/>
<path d="M22.8572 11.4286L22.8572 10L21.4286 10L21.4286 11.4286L22.8572 11.4286Z" fill="#DAD7F5"/>
<path d="M21.4285 11.4286L21.4285 10L19.9999 10L19.9999 11.4286L21.4285 11.4286Z" fill="#DAD7F5"/>
<path d="M20 11.4286L20 10L18.5714 10L18.5714 11.4286L20 11.4286Z" fill="#DAD7F5"/>
<path d="M18.5714 11.4286L18.5714 10L17.1428 10L17.1428 11.4286L18.5714 11.4286Z" fill="#DAD7F5"/>
<path d="M17.1428 11.4286L17.1428 10L15.7143 10L15.7143 11.4286L17.1428 11.4286Z" fill="#E9E8EF"/>
<path d="M15.7142 11.4286L15.7142 10L14.2857 10L14.2857 11.4286L15.7142 11.4286Z" fill="#E9E8EF"/>
<path d="M14.2856 11.4286L14.2856 10L12.8571 10L12.8571 11.4286L14.2856 11.4286Z" fill="#DAD7F5"/>
<path d="M12.8572 11.4286L12.8572 10L11.4286 10L11.4286 11.4286L12.8572 11.4286Z" fill="#DAD7F5"/>
<path d="M11.4286 11.4286L11.4286 10L10 10L10 11.4286L11.4286 11.4286Z" fill="#DAD7F5"/>
<path d="M14.2856 9.99994L14.2856 8.57137L12.8571 8.57137L12.8571 9.99994L14.2856 9.99994Z" fill="#DAD7F5"/>
<path d="M15.7142 9.99994L15.7142 8.57137L14.2857 8.57137L14.2857 9.99994L15.7142 9.99994Z" fill="#DAD7F5"/>
<path d="M17.1428 9.99994L17.1428 8.57137L15.7143 8.57137L15.7143 9.99994L17.1428 9.99994Z" fill="#DAD7F5"/>
<path d="M18.5714 9.99994L18.5714 8.57137L17.1428 8.57137L17.1428 9.99994L18.5714 9.99994Z" fill="#DAD7F5"/>
<path d="M20 9.99994L20 8.57137L18.5714 8.57137L18.5714 9.99994L20 9.99994Z" fill="#DAD7F5"/>
<path d="M21.4285 9.99994L21.4285 8.57137L19.9999 8.57137L19.9999 9.99994L21.4285 9.99994Z" fill="#DAD7F5"/>
<path d="M22.8572 9.99994L22.8572 8.57137L21.4286 8.57137L21.4286 9.99994L22.8572 9.99994Z" fill="#DAD7F5"/>
<path d="M24.2856 9.99994L24.2856 8.57137L22.8571 8.57137L22.8571 9.99994L24.2856 9.99994Z" fill="#DAD7F5"/>
<path d="M25.7144 9.99994L25.7144 8.57137L24.2858 8.57137L24.2858 9.99994L25.7144 9.99994Z" fill="#DAD7F5"/>
<path d="M27.1428 9.99994L27.1428 8.57137L25.7143 8.57137L25.7143 9.99994L27.1428 9.99994Z" fill="#DAD7F5"/>
<path d="M24.2856 8.57147L24.2856 7.1429L22.8571 7.1429L22.8571 8.57147L24.2856 8.57147Z" fill="#DAD7F5"/>
<path d="M22.8572 8.57147L22.8572 7.1429L21.4286 7.1429L21.4286 8.57147L22.8572 8.57147Z" fill="#DAD7F5"/>
<path d="M21.4285 8.57147L21.4285 7.1429L19.9999 7.1429L19.9999 8.57147L21.4285 8.57147Z" fill="#DAD7F5"/>
<path d="M20 8.57147L20 7.1429L18.5714 7.1429L18.5714 8.57147L20 8.57147Z" fill="#DAD7F5"/>
<path d="M18.5714 8.57147L18.5714 7.1429L17.1428 7.1429L17.1428 8.57147L18.5714 8.57147Z" fill="#DAD7F5"/>
<path d="M17.1428 8.57147L17.1428 7.1429L15.7143 7.1429L15.7143 8.57147L17.1428 8.57147Z" fill="#DAD7F5"/>
<path d="M17.1428 20L17.1428 18.5714L15.7143 18.5714L15.7143 20L17.1428 20Z" fill="#DAD7F5"/>
<path d="M15.7142 20L15.7142 18.5714L14.2857 18.5714L14.2857 20L15.7142 20Z" fill="#DAD7F5"/>
<path d="M14.2856 20L14.2856 18.5714L12.8571 18.5714L12.8571 20L14.2856 20Z" fill="#DAD7F5"/>
<path d="M12.8572 20L12.8572 18.5714L11.4286 18.5714L11.4286 20L12.8572 20Z" fill="#DAD7F5"/>
<path d="M11.4286 20L11.4286 18.5714L10 18.5714L10 20L11.4286 20Z" fill="#DAD7F5"/>
<path d="M10 20L10 18.5714L8.57143 18.5714L8.57143 20L10 20Z" fill="#DAD7F5"/>
<path d="M12.8572 21.4286L12.8572 20L11.4286 20L11.4286 21.4286L12.8572 21.4286Z" fill="#DAD7F5"/>
<path d="M14.2856 21.4286L14.2856 20L12.8571 20L12.8571 21.4286L14.2856 21.4286Z" fill="#DAD7F5"/>
<path d="M15.7142 21.4286L15.7142 20L14.2857 20L14.2857 21.4286L15.7142 21.4286Z" fill="#DAD7F5"/>
<path d="M24.2856 20L24.2856 18.5714L22.8571 18.5714L22.8571 20L24.2856 20Z" fill="#DAD7F5"/>
<path d="M31.4285 20L31.4285 18.5714L29.9999 18.5714L29.9999 20L31.4285 20Z" fill="#DAD7F5"/>
<path d="M30 20L30 18.5714L28.5714 18.5714L28.5714 20L30 20Z" fill="#DAD7F5"/>
<path d="M28.5713 20L28.5713 18.5714L27.1427 18.5714L27.1427 20L28.5713 20Z" fill="#DAD7F5"/>
<path d="M27.1428 20L27.1428 18.5714L25.7143 18.5714L25.7143 20L27.1428 20Z" fill="#DAD7F5"/>
<path d="M25.7144 20L25.7144 18.5714L24.2858 18.5714L24.2858 20L25.7144 20Z" fill="#DAD7F5"/>
<path d="M25.7144 21.4286L25.7144 20L24.2858 20L24.2858 21.4286L25.7144 21.4286Z" fill="#DAD7F5"/>
<path d="M27.1428 21.4286L27.1428 20L25.7143 20L25.7143 21.4286L27.1428 21.4286Z" fill="#DAD7F5"/>
<path d="M28.5713 21.4286L28.5713 20L27.1427 20L27.1427 21.4286L28.5713 21.4286Z" fill="#DAD7F5"/>
<rect width="1.42857" height="1.42857" transform="matrix(4.37114e-08 -1 -1 -4.37114e-08 11.4286 17.1428)" fill="#DAD7F5"/>
<rect width="1.42857" height="1.42857" transform="matrix(4.37114e-08 -1 -1 -4.37114e-08 12.8572 17.1428)" fill="#DAD7F5"/>
<rect width="1.42857" height="1.42857" transform="matrix(4.37114e-08 -1 -1 -4.37114e-08 14.2856 17.1428)" fill="#DAD7F5"/>
<rect width="1.42857" height="1.42857" transform="matrix(4.37114e-08 -1 -1 -4.37114e-08 15.7142 17.1428)" fill="#DAD7F5"/>
<rect width="1.42857" height="1.42857" transform="matrix(4.37114e-08 -1 -1 -4.37114e-08 17.1428 17.1428)" fill="#DAD7F5"/>
<rect width="1.42857" height="1.42857" transform="matrix(4.37114e-08 -1 -1 -4.37114e-08 18.5714 17.1428)" fill="#DAD7F5"/>
<rect width="1.42857" height="1.42857" transform="matrix(4.37114e-08 -1 -1 -4.37114e-08 20 17.1428)" fill="#DAD7F5"/>
<rect width="1.42857" height="1.42857" transform="matrix(4.37114e-08 -1 -1 -4.37114e-08 21.4285 17.1428)" fill="#DAD7F5"/>
<rect width="1.42857" height="1.42857" transform="matrix(4.37114e-08 -1 -1 -4.37114e-08 22.8572 17.1428)" fill="#DAD7F5"/>
<rect width="1.42857" height="1.42857" transform="matrix(4.37114e-08 -1 -1 -4.37114e-08 24.2856 17.1428)" fill="#DAD7F5"/>
<rect width="1.42857" height="1.42857" transform="matrix(4.37114e-08 -1 -1 -4.37114e-08 25.7144 17.1428)" fill="#DAD7F5"/>
<rect width="1.42857" height="1.42857" transform="matrix(4.37114e-08 -1 -1 -4.37114e-08 27.1428 17.1428)" fill="#DAD7F5"/>
<rect width="1.42857" height="1.42857" transform="matrix(4.37114e-08 -1 -1 -4.37114e-08 28.5713 17.1428)" fill="#DAD7F5"/>
<rect width="1.42857" height="1.42857" transform="matrix(4.37114e-08 -1 -1 -4.37114e-08 30 17.1428)" fill="#DAD7F5"/>
<rect width="1.42857" height="1.42857" transform="matrix(4.37114e-08 -1 -1 -4.37114e-08 31.4285 17.1428)" fill="#DAD7F5"/>
<rect width="1.42857" height="1.42857" transform="matrix(4.37114e-08 -1 -1 -4.37114e-08 32.8572 17.1428)" fill="#DAD7F5"/>
<rect x="20" y="18.5714" width="1.42857" height="1.42857" fill="#DAD7F5"/>
<rect x="21.4285" y="18.5714" width="1.42857" height="1.42857" fill="#DAD7F5"/>
<rect x="20" y="25.7142" width="1.42857" height="1.42857" fill="#DAD7F5"/>
<rect x="21.4285" y="25.7142" width="1.42857" height="1.42857" fill="#DAD7F5"/>
<rect x="15.7142" y="21.4286" width="1.42857" height="1.42857" transform="rotate(-90 15.7142 21.4286)" fill="#DAD7F5"/>
<rect x="22.8572" y="21.4286" width="1.42857" height="1.42857" transform="rotate(-90 22.8572 21.4286)" fill="#DAD7F5"/>
<rect x="28.5713" y="9.99994" width="1.42857" height="1.42857" transform="rotate(180 28.5713 9.99994)" fill="#DAD7F5"/>
<rect width="1.42857" height="1.42857" transform="matrix(-1 0 0 1 28.5713 30.0001)" fill="#DAD7F5"/>
<rect width="1.42857" height="1.42857" transform="matrix(1 0 0 -1 10 9.99994)" fill="#DAD7F5"/>
<rect x="10" y="30.0001" width="1.42857" height="1.42857" fill="#DAD7F5"/>
<rect x="30" y="9.99994" width="1.42857" height="1.42857" transform="rotate(180 30 9.99994)" fill="#DAD7F5"/>
<rect width="1.42857" height="1.42857" transform="matrix(-1 0 0 1 30 30.0001)" fill="#DAD7F5"/>
<rect width="1.42857" height="1.42857" transform="matrix(1 0 0 -1 8.57141 11.4286)" fill="#DAD7F5"/>
<rect x="8.57141" y="28.5714" width="1.42857" height="1.42857" fill="#DAD7F5"/>
<rect width="1.42857" height="1.42857" transform="matrix(1 0 0 -1 8.57141 12.8572)" fill="#DAD7F5"/>
<rect x="8.57141" y="27.1428" width="1.42857" height="1.42857" fill="#DAD7F5"/>
<rect x="31.4285" y="11.4286" width="1.42857" height="1.42857" transform="rotate(180 31.4285 11.4286)" fill="#DAD7F5"/>
<rect width="1.42857" height="1.42857" transform="matrix(-1 0 0 1 31.4285 28.5714)" fill="#DAD7F5"/>
<rect width="1.42857" height="1.42857" transform="matrix(1 0 0 -1 30 12.8572)" fill="#DAD7F5"/>
<rect x="30" y="27.1428" width="1.42857" height="1.42857" fill="#DAD7F5"/>
<rect width="1.42857" height="1.42857" transform="matrix(1 0 0 -1 7.14282 14.2857)" fill="#DAD7F5"/>
<rect x="7.14282" y="25.7142" width="1.42857" height="1.42857" fill="#DAD7F5"/>
<rect x="32.8572" y="14.2857" width="1.42857" height="1.42857" transform="rotate(180 32.8572 14.2857)" fill="#DAD7F5"/>
<rect width="1.42857" height="1.42857" transform="matrix(-1 0 0 1 32.8572 25.7142)" fill="#DAD7F5"/>
<rect width="1.42857" height="1.42857" transform="matrix(1 0 0 -1 7.14282 15.7143)" fill="#DAD7F5"/>
<rect x="7.14282" y="24.2857" width="1.42857" height="1.42857" fill="#DAD7F5"/>
<rect x="32.8572" y="15.7143" width="1.42857" height="1.42857" transform="rotate(180 32.8572 15.7143)" fill="#DAD7F5"/>
<rect width="1.42857" height="1.42857" transform="matrix(-1 0 0 1 32.8572 24.2857)" fill="#DAD7F5"/>
<rect width="1.42857" height="1.42857" transform="matrix(1 0 0 -1 5.71423 17.1428)" fill="#DAD7F5"/>
<rect x="5.71423" y="22.8572" width="1.42857" height="1.42857" fill="#DAD7F5"/>
<rect x="34.2856" y="17.1428" width="1.42857" height="1.42857" transform="rotate(180 34.2856 17.1428)" fill="#DAD7F5"/>
<rect x="34.2856" y="17.1428" width="1.42857" height="1.42857" transform="rotate(180 34.2856 17.1428)" fill="#DAD7F5"/>
<rect width="1.42857" height="1.42857" transform="matrix(-1 0 0 1 34.2856 22.8572)" fill="#DAD7F5"/>
<rect width="1.42857" height="1.42857" transform="matrix(1 0 0 -1 14.2856 8.57147)" fill="#DAD7F5"/>
<rect x="14.2856" y="31.4285" width="1.42857" height="1.42857" fill="#DAD7F5"/>
<rect x="25.7144" y="8.57147" width="1.42857" height="1.42857" transform="rotate(180 25.7144 8.57147)" fill="#DAD7F5"/>
<rect width="1.42857" height="1.42857" transform="matrix(-1 0 0 1 25.7144 31.4285)" fill="#DAD7F5"/>
</g>
<defs>
<clipPath id="clip0_39_1143">
<rect width="40" height="40" fill="white"/>
</clipPath>
</defs>
</svg>
